#!OML:ASF G:\JayActor3\Patient Classification 1\Patient 1\Session 6\male.ASF
:FULLY-SPECIFIED
:DEGREES
3196
root 4.63019 16.1627 -4.61342 532.496 -85.7435 -543.531
lowerback -0.46387 -0.814795 0.290719
upperback -3.134 -1.09526 1.43978
thorax -2.93353 -0.553319 1.3398
lowerneck -4.08252 5.70882 6.02505
upperneck 24.4395 6.97186 -1.71473
head 8.5498 3.40936 -1.02854
rclavicle 1.19271e-015 -9.54166e-015
rhumerus -10.4018 43.3262 -72.9543
rradius 123.819
rwrist 16.9619
rhand -43.6925 11.1819
rfingers 7.12502
rthumb -16.5251 -18.1344
lclavicle 1.19271e-015 -9.54166e-015
lhumerus -4.01356 -55.6465 78.6789
lradius 72.9523
lwrist 6.61305
lhand 10.556 7.15535
lfingers 7.12502
lthumb 35.6535 33.5563
rfemur -19.1047 0.372885 14.514
rtibia 43.8071
rfoot -22.9426 -26.0568
rtoes -1.8788
lfemur 22.2661 14.7565 -17.0122
ltibia 7.42312
lfoot -23.2835 27.0864
ltoes 5.17662
3197
root 4.68515 16.1788 -4.62063 532.78 -85.706 -543.599
lowerback -0.402619 -0.813066 0.202066
upperback -3.03955 -1.09293 1.36641
thorax -2.87026 -0.549859 1.31372
lowerneck -3.98736 5.72519 6.03598
upperneck 24.7429 6.97908 -1.71713
head 8.63809 3.40494 -1.03235
rclavicle 1.37161e-014 -8.34896e-015
rhumerus -10.2515 43.3995 -72.6565
rradius 123.953
rwrist 16.7316
rhand -43.6406 11.1765
rfingers 7.12502
rthumb -16.4752 -18.144
lclavicle 1.37161e-014 -8.34896e-015
lhumerus -3.93903 -55.4756 78.5217
lradius 72.7712
lwrist 6.58373
lhand 10.668 7.32313
lfingers 7.12502
lthumb 35.7597 33.6983
rfemur -19.4729 0.365305 14.4155
rtibia 43.7795
rfoot -22.7263 -25.7859
rtoes -1.96816
lfemur 21.9502 14.8687 -17.0692
ltibia 7.18522
lfoot -23.1816 26.9312
ltoes 5.52306
3198
root 4.73998 16.1939 -4.6297 533.523 -85.6801 -544.123
lowerback -0.324642 -0.811749 0.0619177
upperback -2.9532 -1.09171 1.29212
thorax -2.82389 -0.545723 1.31604
lowerneck -3.89426 5.73906 6.05071
upperneck 25.0599 6.97848 -1.70829
head 8.73138 3.39782 -1.03369
rclavicle 1.68967e-014 -2.10712e-014
rhumerus -10.1171 43.4731 -72.3547
rradius 124.099
rwrist 16.5282
rhand -43.5758 11.0922
rfingers 7.12502
rthumb -16.4128 -18.2334
lclavicle 1.68967e-014 -2.10712e-014
lhumerus -3.87163 -55.3086 78.3796
lradius 72.6058
lwrist 6.56063
lhand 10.6944 7.44368
lfingers 7.12502
lthumb 35.7847 33.8128
rfemur -19.8533 0.41411 14.2687
rtibia 43.8046
rfoot -22.5641 -25.5511
rtoes -2.02922
lfemur 21.6246 14.9741 -17.1652
ltibia 6.95254
lfoot -23.0823 26.7764
ltoes 5.87781
3199
root 4.79453 16.2081 -4.64037 534.5 -85.6675 -544.884
lowerback -0.235056 -0.812884 -0.110011
upperback -2.86879 -1.09422 1.22104
thorax -2.7854 -0.542743 1.3398
lowerneck -3.80822 5.75056 6.0648
upperneck 25.3942 6.9696 -1.68483
head 8.83158 3.38766 -1.03057
rclavicle 9.93923e-016 7.55382e-015
rhumerus -9.99702 43.5433 -72.0518
rradius 124.247
rwrist 16.3493
rhand -43.5025 10.9454
rfingers 7.12502
rthumb -16.3422 -18.3861
lclavicle 9.93923e-016 7.55382e-015
lhumerus -3.79333 -55.1468 78.2383
lradius 72.4488
lwrist 6.54776
lhand 10.616 7.51004
lfingers 7.12502
lthumb 35.7104 33.8972
rfemur -20.234 0.503928 14.0891
rtibia 43.8775
rfoot -22.4475 -25.3458
rtoes -2.04137
lfemur 21.282 15.066 -17.2783
ltibia 6.75144
lfoot -22.9955 26.6183
ltoes 6.22694
3200
root 4.84838 16.2211 -4.65232 535.618 -85.6694 -545.798
lowerback -0.136642 -0.817852 -0.301991
upperback -2.78007 -1.10221 1.1551
thorax -2.74689 -0.542115 1.38034
lowerneck -3.72799 5.75935 6.0719
upperneck 25.7413 6.95298 -1.64774
head 8.93677 3.37413 -1.02225
rclavicle 1.98785e-016 1.74931e-014
rhumerus -9.87452 43.6118 -71.7455
rradius 124.388
rwrist 16.19
rhand -43.4313 10.7205
rfingers 7.12502
rthumb -16.2736 -18.6166
lclavicle 1.98785e-016 1.74931e-014
lhumerus -3.69942 -54.9875 78.0946
lradius 72.2954
lwrist 6.54785
lhand 10.4485 7.51873
lfingers 7.12502
lthumb 35.5516 33.9442
rfemur -20.5995 0.615716 13.8836
rtibia 43.9886
rfoot -22.3354 -25.1738
rtoes -2.06877
lfemur 20.9209 15.1401 -17.3966
ltibia 6.60683
lfoot -22.9383 26.4475
ltoes 6.56146
3201
root 4.90114 16.2327 -4.66526 536.754 -85.6868 -546.747
lowerback -0.0321775 -0.827628 -0.499422
upperback -2.67999 -1.11678 1.0963
thorax -2.69967 -0.544787 1.43142
lowerneck -3.6525 5.76511 6.067
upperneck 26.0971 6.92859 -1.59609
head 9.04508 3.35693 -1.00762
rclavicle 1.2921e-015 -2.22639e-014
rhumerus -9.74377 43.6737 -71.4379
rradius 124.511
rwrist 16.0405
rhand -43.3668 10.4615
rfingers 7.12502
rthumb -16.2116 -18.8807
lclavicle 1.2921e-015 -2.22639e-014
lhumerus -3.57583 -54.8315 77.9397
lradius 72.1383
lwrist 6.57323
lhand 10.2163 7.47939
lfingers 7.12502
lthumb 35.3315 33.9574
rfemur -20.9317 0.729925 13.6622
rtibia 44.1259
rfoot -22.2085 -25.0224
rtoes -2.14539
lfemur 20.5444 15.1929 -17.5054
ltibia 6.53468
lfoot -22.9157 26.2616
ltoes 6.86355
3202
root 4.95224 16.243 -4.67879 537.782 -85.7214 -547.614
lowerback 0.0803178 -0.841399 -0.682457
upperback -2.56772 -1.13659 1.04349
thorax -2.64439 -0.550623 1.48073
lowerneck -3.57856 5.76448 6.05176
upperneck 26.4647 6.89153 -1.53158
head 9.15702 3.33362 -0.988047
rclavicle -6.95746e-015 3.26007e-014
rhumerus -9.60948 43.7252 -71.1394
rradius 124.609
rwrist 15.8948
rhand -43.3165 10.2014
rfingers 7.12502
rthumb -16.1631 -19.1447
lclavicle -6.95746e-015 3.26007e-014
lhumerus -3.4313 -54.6858 77.7788
lradius 71.9758
lwrist 6.64049
lhand 9.92789 7.41648
lfingers 7.12502
lthumb 35.0579 33.959
rfemur -21.2127 0.836407 13.4351
rtibia 44.2774
rfoot -22.0652 -24.8696
rtoes -2.26956
lfemur 20.1608 15.2219 -17.5921
ltibia 6.53617
lfoot -22.9037 26.0792
ltoes 7.07397
